<svg width="19" height="19" viewBox="0 0 19 19" fill="none" xmlns="http://www.w3.org/2000/svg">
<path fill-rule="evenodd" clip-rule="evenodd" d="M9.11692 0.800018C4.31335 0.800018 0.417725 4.69513 0.417725 9.50031C0.417725 13.3436 2.91031 16.6047 6.36745 17.7557C6.80273 17.8352 6.96135 17.5666 6.96135 17.3359C6.96135 17.1292 6.95388 16.5823 6.9496 15.8565C4.52966 16.382 4.01907 14.69 4.01907 14.69C3.62331 13.6849 3.05291 13.4173 3.05291 13.4173C2.263 12.8779 3.11273 12.8885 3.11273 12.8885C3.98596 12.95 4.44527 13.7853 4.44527 13.7853C5.2213 15.1146 6.48174 14.7306 6.97738 14.5079C7.05642 13.946 7.28127 13.5626 7.52962 13.3452C5.59783 13.1251 3.5667 12.379 3.5667 9.04526C3.5667 8.09512 3.90585 7.3191 4.46237 6.71077C4.37264 6.49073 4.07408 5.60626 4.54782 4.40831C4.54782 4.40831 5.27791 4.17438 6.93999 5.2997C7.63376 5.10689 8.37828 5.01076 9.11799 5.00702C9.85717 5.01076 10.6012 5.10689 11.296 5.2997C12.957 4.17438 13.686 4.40831 13.686 4.40831C14.1608 5.60626 13.8623 6.49073 13.7731 6.71077C14.3307 7.3191 14.6672 8.09512 14.6672 9.04526C14.6672 12.3876 12.6328 13.123 10.6952 13.3382C11.0071 13.6069 11.2853 14.1378 11.2853 14.9496C11.2853 16.1123 11.2746 17.0507 11.2746 17.3359C11.2746 17.5687 11.4317 17.8395 11.8728 17.7546C15.3273 16.6015 17.8177 13.3431 17.8177 9.50031C17.8177 4.69513 13.9221 0.800018 9.11692 0.800018Z" fill="white"/>
</svg>
