<svg width="19" height="19" viewBox="0 0 19 19" fill="none" xmlns="http://www.w3.org/2000/svg">
<path fill-rule="evenodd" clip-rule="evenodd" d="M15.6085 15.9908C16.0014 15.5981 16.3078 15.1274 16.5082 14.6093C16.701 14.1132 16.8329 13.5462 16.8708 12.7159C16.9087 11.884 16.9177 11.6184 16.9177 9.50002C16.9177 7.38169 16.9087 7.11595 16.8708 6.28411C16.8329 5.45386 16.701 4.88689 16.5082 4.39075C16.3123 3.8703 16.0054 3.39882 15.6085 3.00921C15.2189 2.61235 14.7474 2.30526 14.227 2.10937C13.7308 1.91668 13.1638 1.78485 12.3335 1.7471C11.5017 1.70899 11.2361 1.70001 9.1177 1.70001C6.99934 1.70001 6.73362 1.70899 5.90179 1.74696C5.07154 1.78485 4.50456 1.91668 4.00842 2.10951C3.48797 2.30538 3.0165 2.6124 2.62689 3.00919C2.23001 3.39877 1.92291 3.87024 1.72698 4.39071C1.5343 4.88689 1.40247 5.45386 1.36471 6.28411C1.3266 7.11595 1.31763 7.38166 1.31763 9.50002C1.31763 11.6184 1.3266 11.8841 1.36471 12.7159C1.40262 13.5462 1.53445 14.1132 1.72728 14.6093C1.92315 15.1298 2.23017 15.6012 2.62696 15.9908C3.01656 16.3877 3.48803 16.6946 4.00848 16.8905C4.50466 17.0833 5.07164 17.2152 5.90185 17.2531C6.7338 17.291 6.99942 17.3 9.11777 17.3C11.2361 17.3 11.5018 17.291 12.3336 17.2531C13.1639 17.2152 13.7309 17.0833 14.227 16.8905C14.7451 16.6901 15.2158 16.3837 15.6085 15.9908ZM2.51701 8.58196C2.51732 8.8343 2.51769 9.13453 2.51769 9.50004C2.51769 9.86554 2.51732 10.1658 2.51701 10.4181C2.51582 11.4032 2.51551 11.6583 2.54118 12.2186C2.57313 12.9211 2.6115 13.4373 2.72868 13.8264C2.84134 14.2004 2.96769 14.5811 3.38019 15.0405C3.79269 15.4999 4.19056 15.708 4.69737 15.8609C5.20418 16.0136 5.84115 16.0465 6.39425 16.0717C7.02161 16.1004 7.27025 16.1003 8.58619 16.0999H9.1177C9.46928 16.0999 9.76046 16.1001 10.0067 16.1005C11.016 16.1016 11.2707 16.1018 11.8365 16.0759C12.5391 16.044 13.0553 16.0056 13.4443 15.8885C13.8184 15.7758 14.199 15.6494 14.6584 15.2369C15.1177 14.8244 15.3258 14.4265 15.4787 13.9197C15.6316 13.4129 15.6645 12.7759 15.6897 12.2228C15.7182 11.5963 15.7181 11.3483 15.7179 10.037V10.0369L15.7177 9.50048V8.96898C15.7181 7.65303 15.7182 7.40439 15.6895 6.77703C15.6643 6.22393 15.6315 5.58696 15.4787 5.08015C15.3258 4.57335 15.1177 4.17547 14.6584 3.76297C14.199 3.35047 13.8183 3.22412 13.4443 3.11146C13.0552 2.99428 12.5389 2.95591 11.8365 2.92396C11.2707 2.89804 11.016 2.89832 10.0067 2.89942C9.76047 2.8997 9.46929 2.90002 9.1177 2.90002L8.58608 2.89993C7.27024 2.89958 7.0216 2.89951 6.39425 2.92813C5.84115 2.95336 5.20418 2.98621 4.69737 3.13906C4.19056 3.29192 3.79269 3.5 3.38019 3.95938C2.96769 4.41876 2.84134 4.79944 2.72868 5.17345C2.6115 5.5625 2.57313 6.07874 2.54118 6.78126C2.51551 7.34158 2.51582 7.59682 2.51701 8.58196ZM9.11758 6.80019C7.62652 6.80019 6.41777 8.00894 6.41777 9.5C6.41777 10.9911 7.62652 12.1998 9.11758 12.1998C10.6086 12.1998 11.8174 10.9911 11.8174 9.5C11.8174 8.00894 10.6086 6.80019 9.11758 6.80019ZM5.21777 9.5C5.21777 7.34619 6.96377 5.60019 9.11758 5.60019C11.2714 5.60019 13.0174 7.34619 13.0174 9.5C13.0174 11.6538 11.2714 13.3998 9.11758 13.3998C6.96377 13.3998 5.21777 11.6538 5.21777 9.5ZM13.2813 6.23637C13.7783 6.23637 14.1813 5.83344 14.1813 5.33637C14.1813 4.83932 13.7783 4.43637 13.2813 4.43637C12.7842 4.43637 12.3813 4.83932 12.3813 5.33637C12.3813 5.83344 12.7842 6.23637 13.2813 6.23637Z" fill="white"/>
</svg>
