<svg width="19" height="19" viewBox="0 0 19 19" fill="none" xmlns="http://www.w3.org/2000/svg">
<path fill-rule="evenodd" clip-rule="evenodd" d="M8.89789 6.13557C8.89789 4.11782 10.5331 2.4823 12.5498 2.4823C13.797 2.4823 14.7828 3.10693 15.4161 3.99713L15.3378 3.80274C16.0557 3.662 16.7304 3.39945 17.3394 3.03811C17.1039 3.77432 16.6045 4.3928 15.9536 4.78256C16.5917 4.70609 17.1986 4.53693 17.7637 4.28656L17.7623 4.28859C17.3407 4.91992 16.8062 5.47411 16.1904 5.91936L16.1619 5.84851C16.1954 6.06512 16.2125 6.28357 16.2125 6.50097C16.2125 10.8815 12.8759 15.9695 6.74333 15.9695C4.86456 15.9695 3.11486 15.4191 1.64192 14.4741C1.4095 14.3249 1.34198 14.0157 1.4911 13.7832C1.49715 13.7738 1.50345 13.7647 1.51001 13.7558C1.58804 13.5805 1.77328 13.4685 1.9738 13.4921C3.15792 13.6316 4.34514 13.4692 5.37467 12.9704C4.347 12.5859 3.54225 11.7452 3.20601 10.6962C3.15756 10.5451 3.19232 10.3796 3.29748 10.2607C3.32272 10.2322 3.35112 10.2074 3.38186 10.1865C2.5861 9.52567 2.07954 8.52891 2.07954 7.41372V7.37313C2.07954 7.21367 2.16392 7.06612 2.30135 6.98527C2.38543 6.9358 2.48168 6.91582 2.57566 6.92549C2.27639 6.39977 2.10525 5.7913 2.10525 5.14351C2.10525 4.57949 2.11024 3.8971 2.49032 3.28443C2.57471 3.14841 2.71982 3.07304 2.86885 3.07161C3.04869 3.03009 3.24471 3.09013 3.36923 3.24283C4.71794 4.89673 6.67578 6.03052 8.90162 6.30169C8.89915 6.24664 8.89789 6.19126 8.89789 6.13557ZM6.74333 14.9695C5.65479 14.9695 4.61544 14.7632 3.66018 14.3881C4.80865 14.2509 5.91795 13.8373 6.85696 13.1014C7.00689 12.9839 7.0666 12.7847 7.00604 12.6041C6.94548 12.4236 6.77778 12.3006 6.58733 12.2973C5.65672 12.2809 4.83975 11.7928 4.36652 11.0618C4.64457 11.0513 4.91537 11.0095 5.1757 10.9391C5.37729 10.8846 5.51488 10.6986 5.50799 10.4899C5.50111 10.2812 5.35155 10.1046 5.14681 10.0635C4.12705 9.85882 3.31523 9.07964 3.06196 8.07865C3.34305 8.15962 3.63819 8.20742 3.94258 8.21738C4.14339 8.22395 4.32423 8.09661 4.38571 7.90533C4.4472 7.71405 4.37443 7.50519 4.2074 7.39352C3.48214 6.90866 3.00525 6.08082 3.00525 5.14351C3.00525 4.85691 3.01064 4.60807 3.04233 4.38592C4.66559 6.10942 6.92804 7.22502 9.45395 7.3522C9.61032 7.36007 9.76134 7.29425 9.86202 7.17434C9.96269 7.05444 10.0014 6.8943 9.96657 6.74165C9.92182 6.54542 9.89789 6.34316 9.89789 6.13557C9.89789 4.66983 11.0857 3.4823 12.5498 3.4823C14.1019 3.4823 15.2125 4.91635 15.2125 6.50097C15.2125 10.4515 12.2088 14.9695 6.74333 14.9695Z" fill="white"/>
</svg>
